<?xml version="1.0" standalone="no"?>
<!DOCTYPE svg PUBLIC "-//W3C//DTD SVG 20010904//EN"
 "http://www.w3.org/TR/2001/REC-SVG-20010904/DTD/svg10.dtd">
<svg version="1.0" xmlns="http://www.w3.org/2000/svg"
 width="512.000000pt" height="512.000000pt" viewBox="0 0 512.000000 512.000000"
 preserveAspectRatio="xMidYMid meet">

<g transform="translate(0.000000,512.000000) scale(0.100000,-0.100000)"
fill="#000000" stroke="none">
<path d="M2194 4923 c-12 -2 -30 -13 -40 -25 -18 -18 -19 -45 -22 -339 l-3
-319 -133 0 c-139 0 -190 -10 -206 -40 -6 -11 -10 -118 -10 -249 l0 -230 26
-20 c24 -19 40 -21 185 -21 88 0 159 -3 159 -7 0 -7 -71 -245 -76 -251 0 -1
-35 16 -77 38 -324 175 -703 175 -1042 2 -308 -159 -536 -462 -601 -800 -60
-314 69 -680 375 -1062 100 -125 307 -336 436 -446 l104 -88 -52 -30 c-70 -39
-159 -132 -190 -198 -49 -99 -57 -155 -57 -383 l0 -212 26 -24 26 -24 241 0
c133 0 844 1 1580 3 l1338 2 24 25 c25 24 25 25 25 230 0 238 -12 310 -66 402
-45 76 -131 155 -216 197 l-67 34 98 86 c429 374 719 802 787 1163 80 424
-179 908 -601 1125 -173 88 -337 128 -530 128 -186 0 -348 -41 -512 -130 -42
-22 -77 -39 -77 -38 -5 6 -76 244 -76 251 0 4 71 7 159 7 145 0 161 2 185 21
l26 20 0 230 c0 131 -4 238 -10 249 -16 30 -67 40 -206 40 l-133 0 -3 320 c-3
317 -3 320 -26 342 l-23 23 -362 1 c-199 1 -372 0 -383 -3z m634 -478 c3 -400
-16 -365 199 -365 l153 0 0 -120 0 -120 -175 0 c-173 0 -176 0 -200 -25 -14
-13 -25 -34 -25 -46 0 -28 81 -306 123 -423 55 -151 89 -167 198 -90 183 130
360 181 591 171 412 -17 748 -277 890 -687 31 -90 32 -102 32 -235 0 -123 -4
-151 -27 -230 -53 -174 -171 -387 -317 -570 -93 -116 -327 -352 -462 -465
-115 -97 -117 -98 -155 -90 -123 27 -295 31 -1128 27 -882 -4 -873 -4 -1050
-42 -28 -6 -42 3 -155 98 -148 124 -389 367 -481 487 -306 395 -401 718 -299
1021 140 418 507 689 933 689 208 0 377 -54 546 -174 117 -83 145 -64 214 141
57 172 107 344 107 372 0 12 -11 33 -25 46 -24 25 -27 25 -200 25 l-175 0 0
120 0 120 152 0 c142 0 153 1 175 22 l23 21 0 317 c0 174 3 320 7 323 4 4 124
6 267 5 l261 -3 3 -320z m704 -3440 c283 -37 437 -115 505 -254 27 -53 28 -64
31 -223 l4 -168 -1149 0 c-631 0 -1294 -3 -1471 -7 l-324 -6 4 174 c3 167 4
176 31 230 72 148 253 231 567 262 19 2 409 4 865 5 669 1 851 -1 937 -13z"/>
<path d="M1489 2810 c-101 -17 -195 -81 -244 -164 -42 -71 -67 -224 -49 -292
9 -32 526 -687 555 -702 17 -9 71 -12 191 -10 159 3 169 4 190 26 l23 23 0
402 0 402 -26 56 c-64 135 -209 220 -437 254 -105 16 -133 17 -203 5z m270
-181 c92 -24 166 -64 206 -113 l30 -38 0 -336 0 -337 -86 -3 -86 -3 -237 303
-237 303 5 53 c17 180 150 236 405 171z"/>
<path d="M3425 2806 c-112 -19 -160 -33 -240 -71 -87 -42 -159 -109 -193 -183
l-27 -57 0 -402 0 -402 23 -23 c21 -22 31 -23 190 -26 121 -2 174 1 192 10 28
15 546 670 554 702 18 68 -7 221 -49 292 -34 58 -107 120 -170 143 -71 27
-182 33 -280 17z m245 -179 c54 -28 89 -88 96 -168 l5 -54 -237 -303 -237
-303 -86 3 -86 3 0 335 0 335 24 34 c32 45 101 87 181 112 144 43 262 45 340
6z"/>
</g>
</svg>
