<?xml version="1.0" standalone="no"?>
<!DOCTYPE svg PUBLIC "-//W3C//DTD SVG 20010904//EN"
 "http://www.w3.org/TR/2001/REC-SVG-20010904/DTD/svg10.dtd">
<svg version="1.0" xmlns="http://www.w3.org/2000/svg"
 width="512.000000pt" height="512.000000pt" viewBox="0 0 512.000000 512.000000"
 preserveAspectRatio="xMidYMid meet">

<g transform="translate(0.000000,512.000000) scale(0.100000,-0.100000)"
fill="#000000" stroke="none">
<path d="M2194 4923 c-12 -2 -30 -13 -40 -25 -18 -18 -19 -45 -22 -339 l-3
-319 -133 0 c-139 0 -190 -10 -206 -40 -6 -11 -10 -118 -10 -249 l0 -230 26
-20 c24 -19 40 -21 185 -21 88 0 159 -3 159 -7 0 -7 -71 -245 -76 -251 0 -1
-35 16 -77 38 -324 175 -703 175 -1042 2 -308 -159 -536 -462 -601 -800 -60
-314 69 -680 375 -1062 100 -125 307 -336 436 -446 l104 -88 -52 -30 c-70 -39
-159 -132 -190 -198 -49 -99 -57 -155 -57 -383 l0 -212 26 -24 26 -24 241 0
c133 0 844 1 1580 3 l1338 2 24 25 c25 24 25 25 25 230 0 238 -12 310 -66 402
-45 76 -131 155 -216 197 l-67 34 98 86 c429 374 719 802 787 1163 56 296 -56
637 -291 891 -214 231 -518 362 -840 362 -186 0 -348 -41 -512 -130 -42 -22
-77 -39 -77 -38 -5 6 -76 244 -76 251 0 4 71 7 159 7 145 0 161 2 185 21 l26
20 0 230 c0 131 -4 238 -10 249 -16 30 -67 40 -206 40 l-133 0 -3 320 c-3 317
-3 320 -26 342 l-23 23 -362 1 c-199 1 -372 0 -383 -3z m-435 -2294 c92 -24
166 -64 206 -113 l30 -38 0 -336 0 -337 -86 -3 -85 -3 -238 303 -238 303 5 53
c18 180 151 236 406 171z m1911 -2 c54 -28 89 -88 96 -168 l6 -54 -238 -303
-238 -303 -85 3 -86 3 0 335 0 335 24 34 c32 45 101 87 181 112 144 43 262 45
340 6z"/>
</g>
</svg>
