<?xml version="1.0" standalone="no"?>
<!-- <!DOCTYPE svg PUBLIC "-//W3C//DTD SVG 20010904//EN"
 "http://www.w3.org/TR/2001/REC-SVG-20010904/DTD/svg10.dtd"> -->
 
<svg class='svg-logo' version="1.0" xmlns="http://www.w3.org/2000/svg"
 width="512.000000pt" height="512.000000pt" viewBox="0 0 512.000000 512.000000"
 preserveAspectRatio="xMidYMid meet" >
 <style>
    .svg-logo:hover {
      fill: #c91a1a;
      transition:  0.3s;
      stroke: maroon;
      stroke-width: 2px;
    }

    @keyframes reduce_radius {
    from { r: 10; }
    to { r: 3; }
}
@keyframes change_fill {
    0% { fill: #49549E; }
    75% { fill: #1bceb1; }
    100% { fill: #1bce4f; }
}
.svg-logo :hover{ animation: change_fill 1s, popup 2s; }
  </style>

<g  transform="translate(0.000000,512.000000) scale(0.100000,-0.100000)"
 stroke="#ffffff" >
<path  d="M2038 5099 c-23 -12 -46 -35 -58 -59 -18 -36 -20 -58 -20 -280 l0
-240 -27 0 c-115 -1 -280 -70 -375 -158 -108 -100 -168 -214 -190 -361 l-11
-76 -208 -211 c-117 -119 -217 -229 -230 -255 -20 -37 -24 -58 -24 -139 0
-125 14 -151 166 -302 147 -148 192 -172 307 -166 101 5 144 27 256 134 146
138 251 196 384 213 87 11 151 1 285 -46 73 -26 107 -43 107 -53 0 -17 -77
-153 -119 -210 -65 -89 -168 -193 -296 -300 -174 -145 -285 -262 -370 -389
-111 -167 -183 -342 -225 -545 -17 -82 -27 -186 -17 -186 1 0 36 10 77 22 74
22 82 22 1038 25 901 3 962 5 962 21 0 9 -5 35 -10 57 -5 22 -10 92 -11 156
-1 133 10 187 94 464 109 357 139 488 158 696 15 163 2 350 -37 550 -59 306
-155 493 -355 690 -185 184 -432 310 -691 354 l-38 6 0 93 c0 175 -39 286
-134 382 -110 109 -294 163 -388 113z m142 -1199 c45 -23 80 -80 80 -130 0
-76 -74 -150 -150 -150 -50 0 -107 35 -130 80 -25 50 -25 90 0 140 37 73 124
99 200 60z"/>
<path d="M2776 5003 c24 -49 52 -119 60 -158 9 -38 17 -75 19 -81 2 -6 32 -21
67 -34 359 -132 684 -409 857 -731 110 -205 180 -481 202 -802 22 -325 -13
-545 -171 -1072 -38 -126 -72 -247 -76 -267 l-6 -38 171 0 c269 0 267 -2 350
310 118 439 139 821 70 1240 -83 503 -259 853 -590 1175 -63 61 -141 131 -174
156 -248 188 -511 314 -797 383 l-27 6 45 -87z" />
<path d="M1555 1210 c-180 -37 -346 -167 -427 -335 -36 -76 -67 -189 -68 -245
0 -24 -6 -27 -58 -38 -108 -22 -197 -103 -227 -206 -9 -30 -15 -92 -15 -158 0
-131 17 -176 80 -208 39 -20 55 -20 1720 -20 1665 0 1681 0 1720 20 63 32 80
77 80 208 0 66 -6 128 -15 158 -30 103 -119 184 -227 206 -52 11 -58 14 -58
38 -1 56 -32 170 -69 246 -68 142 -189 251 -349 313 l-67 26 -990 2 c-545 0
-1008 -3 -1030 -7z" />
</g>
</svg>
